<?xml version="1.0" encoding="UTF-8" standalone="no"?>
<svg width="24px" height="43px" viewBox="0 0 24 43" version="1.1" xmlns="http://www.w3.org/2000/svg" xmlns:xlink="http://www.w3.org/1999/xlink">
    <!-- Generator: Sketch 49.3 (51167) - http://www.bohemiancoding.com/sketch -->
    <title>icon-bottle-green</title>
    <desc>Created with Sketch.</desc>
    <defs></defs>
    <g id="Page-1" stroke="none" stroke-width="1" fill="none" fill-rule="evenodd">
        <g id="icon-bottle-green" transform="translate(1.000000, 1.000000)" fill="#85B30B" fill-rule="nonzero">
            <path d="M15.46,7.54348459 L17.1460178,9.00525461 C20.3059832,11.7518677 22.1203506,15.7332873 22.12,19.92 L22.12,39.17 C22.12,40.583849 20.973849,41.73 19.56,41.73 L1.56,41.73 C0.14615104,41.73 -1,40.583849 -1,39.17 L-0.999995819,19.9171083 C-0.987932323,15.7453167 0.825317507,11.7820147 3.97382129,9.04539448 L5.7,7.54436951 L5.7,-1 L15.46,-1 L15.46,7.54348459 Z M7.7,1 L7.7,8.45563049 L7.35617871,8.75460552 L5.28601365,10.554749 C2.57284534,12.9129839 1.01039078,16.3281113 1,19.92 L1,39.17 C1,39.4792795 1.25072054,39.73 1.56,39.73 L19.56,39.73 C19.8692795,39.73 20.12,39.4792795 20.12,39.17 L20.12,19.9199163 C20.1203021,16.3122064 18.5568846,12.8814674 15.8349278,10.5155663 L13.46,8.45651558 L13.46,1 L7.7,1 Z" id="Shape"></path>
            <path d="M-0.94535652,20.4359081 L-0.0359080566,18.6546435 L0.854724232,19.1093677 L3.69031056,20.557128 C4.77503043,21.104195 6.05496957,21.104195 7.1427864,20.5555728 L7.80661416,20.2236691 C9.56454052,19.3540799 11.6418968,19.4266513 13.3350752,20.4169247 C14.3963406,21.0379815 15.6912616,21.1117242 16.8242083,20.6116597 L21.2925486,18.685868 L22.084132,20.5225486 L21.1657917,20.9183403 L17.6238275,22.4448352 C15.9114957,23.2006944 13.9403757,23.0884439 12.3251457,22.1432046 C11.2129626,21.4927325 9.84824998,21.445057 8.6972136,22.0144272 L8.04031056,22.342872 C6.38915733,23.1756137 4.44084267,23.1756137 2.78527577,22.3406323 L-0.94535652,20.4359081 Z" id="Shape"></path>
            <polygon id="Shape" points="4.79 4.15 4.79 2.15 16.37 2.15 16.37 4.15"></polygon>
        </g>
    </g>
</svg>