<svg 
 xmlns="http://www.w3.org/2000/svg"
 xmlns:xlink="http://www.w3.org/1999/xlink"
 width="194px" height="193px">
<path fill-rule="evenodd"  fill="rgb(243, 243, 243)"
 d="M158.682,167.674 C147.826,168.718 139.637,173.949 134.116,183.369 C128.595,192.791 120.987,194.995 111.292,189.999 C101.597,184.992 91.884,184.956 82.155,189.896 C72.425,194.829 64.833,192.569 59.377,183.111 C53.922,173.653 45.769,168.365 34.920,167.252 C24.070,166.131 18.904,160.117 19.420,149.207 C19.936,138.294 15.932,129.431 7.408,122.619 C-1.117,115.804 -2.217,107.946 4.107,99.052 C10.431,90.149 11.847,80.527 8.354,70.181 C4.860,59.830 8.176,52.626 18.300,48.566 C28.424,44.502 34.809,37.172 37.457,26.576 C40.104,15.978 46.782,11.716 57.493,13.773 C68.202,15.844 77.531,13.132 85.478,5.654 C93.425,-1.827 101.346,-1.801 109.241,5.734 C117.136,13.269 126.446,16.042 137.170,14.051 C147.894,12.060 154.543,16.374 157.117,26.989 C159.690,37.607 166.025,44.979 176.121,49.114 C186.217,53.245 189.483,60.472 185.918,70.796 C182.354,81.121 183.702,90.748 189.965,99.694 C196.228,108.636 195.073,116.488 186.502,123.242 C177.930,129.993 173.865,138.832 174.306,149.741 C174.747,160.656 169.539,166.635 158.682,167.674 Z"/>
</svg>