<?xml version="1.0" encoding="UTF-8"?>
<svg width="501px" height="651px" viewBox="0 0 501 651" version="1.1" xmlns="http://www.w3.org/2000/svg" xmlns:xlink="http://www.w3.org/1999/xlink">
    <!-- Generator: Sketch 51.2 (57519) - http://www.bohemiancoding.com/sketch -->
    <title>form-border-short</title>
    <desc>Created with Sketch.</desc>
    <defs></defs>
    <g id="Page-1" stroke="none" stroke-width="1" fill="none" fill-rule="evenodd">
        <g id="form-border-short" fill="#FFFFFF" stroke="#F2F2F2">
            <path d="M490.5,650.499 L287.488,650.499 C287.356,650.488 214.936,650.482 214.54,650.499 L10.5,650.499 C7.69163246,650.499 3.17871094,650.499 0.5,650.499 C0.5,648.310059 0.5,643.214632 0.5,640.5 L0.5,10.5 C0.5,4.977 4.977,0.501 10.5,0.501 L214.012,0.501 C214.144,0.512 217.591,0.856 222.115,7.006 C228.59,15.81 238.624,22.497 250.135,22.497 C262.047,22.497 271.697,14.856 278.8,6.062 C283.029,0.825 286.564,0.519 286.96,0.501 L490.5,0.501 C496.023,0.501 500.5,4.977 500.5,10.5 L500.5,640.5 C500.5,643.277213 500.5,648.25 500.5,650.499 C498.05127,650.499 493.245787,650.499 490.5,650.499 Z" id="Shape"></path>
        </g>
    </g>
</svg>