<svg 
 xmlns="http://www.w3.org/2000/svg"
 xmlns:xlink="http://www.w3.org/1999/xlink"
 width="178.95px" height="178.95px">
<path fill-rule="evenodd"  stroke="rgb(194, 193, 194)" stroke-width="1.3px" stroke-linecap="butt" stroke-linejoin="miter" opacity="0.251" fill="none"
 d="M145.381,154.316 C135.506,155.267 128.058,160.043 123.037,168.650 C118.016,177.254 111.096,179.268 102.278,174.706 C93.460,170.135 84.626,170.101 75.777,174.611 C66.927,179.120 60.021,177.053 55.060,168.413 C50.097,159.773 42.682,154.945 32.815,153.924 C22.947,152.902 18.247,147.410 18.717,137.443 C19.186,127.474 15.545,119.378 7.791,113.156 C0.038,106.929 -0.963,99.754 4.789,91.625 C10.541,83.494 11.829,74.702 8.652,65.255 C5.474,55.799 8.490,49.214 17.698,45.507 C26.907,41.792 32.714,35.099 35.122,25.424 C37.530,15.740 43.604,11.842 53.345,13.728 C63.086,15.613 71.571,13.140 78.799,6.305 C86.027,-0.528 93.231,-0.502 100.413,6.382 C107.593,13.263 116.061,15.800 125.814,13.980 C135.568,12.159 141.616,16.099 143.957,25.797 C146.298,35.496 152.059,42.230 161.242,46.005 C170.425,49.779 173.395,56.385 170.153,65.812 C166.911,75.244 168.138,84.043 173.834,92.214 C179.530,100.383 178.480,107.551 170.684,113.725 C162.888,119.893 159.190,127.964 159.592,137.932 C159.992,147.902 155.256,153.361 145.381,154.316 Z"/>
</svg>