<?xml version="1.0" encoding="UTF-8" standalone="no"?>
<svg width="37px" height="45px" viewBox="0 0 37 45" version="1.1" xmlns="http://www.w3.org/2000/svg" xmlns:xlink="http://www.w3.org/1999/xlink">
    <!-- Generator: Sketch 49.3 (51167) - http://www.bohemiancoding.com/sketch -->
    <title>icon-man-green</title>
    <desc>Created with Sketch.</desc>
    <defs></defs>
    <g id="Page-1" stroke="none" stroke-width="1" fill="none" fill-rule="evenodd">
        <g id="icon-man-green" fill="#85B30B" fill-rule="nonzero">
            <path d="M8.67732116,16.0706464 C8.08628093,13.9683387 8.30034043,12.5137239 9.16491218,11.9240388 C9.15024722,11.8524476 9.13695952,11.7818984 9.12511048,11.7126891 C8.81273611,10.3451747 8.81273611,8.92482527 9.12947005,7.53901948 C9.52931524,5.92867464 10.3599774,4.45754865 11.5072785,3.30947136 C12.1582135,2.60861323 12.8973164,1.99515778 13.6590816,1.51603819 C14.3289009,1.03799321 15.0632269,0.657513458 15.8530253,0.381566016 C16.5048692,0.163714206 17.1833758,0.0357672425 17.8238118,0.0046368352 C19.5710351,-0.164208336 21.3260798,0.235574066 22.7736068,1.11395894 C23.6813461,1.588919 24.4620294,2.27067228 25.0540344,3.10162786 C25.4868052,3.23086774 25.9704494,3.49112204 26.4394514,3.93896214 C27.8718297,5.30670956 28.4239558,7.82060302 27.7831333,11.7228904 C27.7672399,11.8083259 27.7500427,11.893492 27.7315496,11.9783591 C28.5908098,12.5706339 28.802567,14.0224274 28.2137855,16.1166785 C27.7622924,17.7483906 27.2722789,18.7916044 26.609163,19.2501116 C25.8794781,22.3160473 23.7221443,24.8645293 20.7485417,26.1009514 C19.2692627,26.6331761 17.6507373,26.6331761 16.1323758,26.085959 C13.173033,24.8790811 11.0072106,22.300378 10.3163034,19.2031973 C9.6640353,18.7298362 9.16012867,17.706181 8.67732116,16.0706464 Z M11.4778703,17.5653269 C11.483892,17.5713071 11.4891898,17.5760639 11.4937172,17.5796324 C11.492035,17.5783065 11.490256,17.5769696 11.4883816,17.5756249 L11.4778703,17.5653269 Z M12.0614833,17.5911608 L12.1865691,18.3466557 C12.6246265,20.9924411 14.4043834,23.2213269 16.8485417,24.2190486 C17.8901642,24.5938104 19.0298358,24.5938104 20.0257419,24.2367743 C22.5025673,23.2058884 24.2847453,20.9856892 24.7555166,18.3445221 L24.9024825,17.52 L25.5256523,17.52 C25.5431831,17.495528 25.5634259,17.4654027 25.5858402,17.429364 C25.7993173,17.0861263 26.0397848,16.4739271 26.2873212,15.5793536 C26.5603329,14.6082611 26.6153255,13.9811297 26.5487397,13.6890572 L25.0179961,13.8399755 L25.548145,12.3539805 C25.663969,12.0293284 25.7538254,11.6959901 25.8132077,11.3780095 C26.3530293,8.0895964 25.9451058,6.23227431 25.0582478,5.38543247 C24.8785906,5.21388167 24.6940903,5.10339499 24.5159347,5.03899435 C24.4275207,5.00703397 24.3772375,4.9973824 24.3853468,4.99790779 L23.8680875,4.96439522 L23.5973023,4.5224047 C23.1723103,3.82870928 22.5672145,3.26319923 21.7922022,2.85550302 C20.6590039,2.16962868 19.334645,1.86795239 17.9702064,1.99873886 C17.4653807,2.02411637 16.9663732,2.11821493 16.4999431,2.27400083 C15.9019002,2.48302621 15.3365791,2.77593869 14.7739143,3.17553858 C14.1113963,3.59388479 13.5059467,4.09640797 12.9476307,4.69658248 C12.0317797,5.61379214 11.3828817,6.76300873 11.0748895,8.00268908 C10.8294764,9.07705994 10.8294764,10.1929401 11.0850903,11.3179619 C11.1439181,11.65481 11.2303789,11.986243 11.3435965,12.3089024 L11.8629764,13.7890855 L10.3412524,13.6390564 C10.2746347,13.9310061 10.3292839,14.5569318 10.5990741,15.5168448 C10.8660581,16.4211455 11.1204389,17.0380603 11.3446781,17.3883006 C11.3844383,17.4504022 11.4186692,17.497062 11.4456601,17.5295784 L12.0614833,17.5911608 Z M10.3624178,13.5613916 C10.3656959,13.557007 10.368452,13.5525419 10.3704683,13.5480305 C10.3697962,13.5495343 10.3691297,13.551055 10.3684687,13.5525926 L10.3624178,13.5613916 Z" id="Shape"></path>
            <path d="M29.1562936,27.9122357 C28.2545333,27.5647379 27.3447157,27.2129589 26.4369493,26.8611872 C26.1192454,26.7380727 25.9227464,26.6618611 25.5601376,26.5211484 C25.2882717,26.4155998 25.2882717,26.4155998 25.2277868,26.3920953 C24.7130048,26.1920505 24.4578599,25.6125688 24.6579047,25.0977868 C24.8579495,24.5830048 25.4374312,24.3278599 25.9522132,24.5279047 C26.0123533,24.5512752 26.0123533,24.5512752 26.2838077,24.6566641 C26.6459646,24.7972014 26.8422585,24.8733335 27.1596132,24.9963128 C28.0662999,25.3476661 28.974998,25.6990121 29.8258314,26.0268863 C30.9572962,26.4628426 31.8624067,26.8096363 32.5317805,27.0632758 C32.9096872,27.2064724 33.2070355,27.3179134 33.4153885,27.3943316 C33.4838134,27.419428 33.5420611,27.4405321 33.5893674,27.4573782 C33.539516,27.4451342 33.5499525,27.46 33.44,27.46 L33.6565024,27.46 L33.814022,27.5139504 C36.0214341,28.2699891 36.9638577,30.1754351 36.9624019,32.722744 C36.9618323,33.7194497 36.8216643,34.7485936 36.5777949,35.8637752 C36.4849014,36.2885646 36.2499724,37.2304485 36.2395585,37.2811593 L36.1263965,37.8322092 L18.4805999,44.1417908 L0.750303411,37.824583 L0.653606076,37.244399 C0.637881234,37.1500499 0.414881538,36.2492902 0.349309118,35.9541162 C0.0629014729,34.6648532 -0.0662383661,33.5148939 0.0268951461,32.3779497 C0.195492719,30.3197642 1.10510551,28.6666551 2.92799479,27.6638317 L3.15309064,27.54 L3.26603806,27.54 C3.73004141,27.3510789 4.76276174,26.9589056 7.01838263,26.105536 C7.91389893,25.7667544 8.83905409,25.4175079 9.76419703,25.0687643 C10.2884258,24.8711916 10.2884258,24.8711916 10.6584885,24.7318166 C10.9360581,24.627308 10.9360581,24.627308 10.9978194,24.6040679 C11.5147204,24.409564 12.0914281,24.6709184 12.2859321,25.1878194 C12.480436,25.7047204 12.2190816,26.2814281 11.7021806,26.4759321 C11.6406348,26.499091 11.6406348,26.499091 11.3633227,26.6035027 C10.993543,26.742771 10.993543,26.742771 10.4696618,26.9402128 C9.54519883,27.2887001 8.62074809,27.6376807 7.75800887,27.9640621 C6.11800379,28.5845252 3.94734775,29.4142735 3.98409743,29.3916583 L3.74304219,29.54 C2.64166188,30.1952519 2.13055116,31.1943288 2.02021856,32.541234 C1.94638525,33.4425674 2.05501268,34.4098686 2.30171378,35.5203927 C2.32945144,35.6452537 2.415492,35.9985694 2.49247386,36.3221547 L18.4794001,42.0182092 L34.4147589,36.3202263 C34.4910064,36.0063384 34.5795314,35.6397068 34.6239669,35.4365095 C34.8398144,34.4494678 34.9619272,33.5528897 34.9624023,32.721601 C34.9633841,31.0035481 34.456712,29.9162782 33.3003588,29.4557446 C33.0825934,29.4258968 32.5551282,29.2218112 29.1562936,27.9122357 Z" id="Shape"></path>
        </g>
    </g>
</svg>